<?xml version="1.0" standalone="no"?>
<!DOCTYPE svg PUBLIC "-//W3C//DTD SVG 20010904//EN"
 "http://www.w3.org/TR/2001/REC-SVG-20010904/DTD/svg10.dtd">
<svg version="1.0" xmlns="http://www.w3.org/2000/svg"
 width="305.000000pt" height="280.000000pt" viewBox="0 0 305.000000 280.000000"
 preserveAspectRatio="xMidYMid meet">

<g transform="translate(0.000000,280.000000) scale(0.100000,-0.100000)"
fill="#000000" stroke="none">
<path d="M1645 2610 c-189 -39 -335 -180 -375 -360 -7 -30 -10 -66 -9 -80 3
-21 -8 -33 -73 -80 -114 -82 -245 -198 -385 -344 l-125 -130 24 -18 c47 -37
246 -128 333 -153 107 -31 247 -42 330 -26 136 25 259 110 322 221 34 61 57
130 42 130 -5 0 -9 -7 -9 -16 0 -23 -41 -114 -51 -114 -5 0 -9 -7 -9 -15 0 -8
-4 -15 -10 -15 -5 0 -10 -6 -10 -13 0 -7 -20 -32 -44 -54 -34 -31 -51 -40 -68
-36 -17 3 -19 2 -9 -5 11 -8 10 -12 -8 -21 -12 -7 -27 -9 -33 -5 -7 4 -8 3 -4
-4 4 -7 1 -12 -9 -12 -9 0 -14 4 -11 8 3 5 -1 9 -9 9 -10 0 -12 -4 -5 -12 8
-9 -1 -15 -32 -23 -80 -20 -110 -23 -102 -9 5 8 2 7 -9 -2 -20 -16 -115 -10
-208 11 -46 11 -50 13 -28 20 15 5 9 5 -17 2 -41 -5 -73 13 -60 35 4 5 1 13
-5 17 -8 4 -9 3 -5 -4 4 -7 2 -12 -4 -12 -6 0 -8 -5 -4 -11 4 -7 1 -10 -7 -7
-8 3 -13 11 -11 18 3 11 0 11 -12 0 -12 -9 -16 -9 -16 -1 0 7 -3 10 -7 8 -12
-7 -55 12 -50 20 3 5 -5 9 -17 9 -26 2 -119 57 -111 66 4 3 0 5 -7 4 -7 0 -15
2 -18 5 -8 9 59 81 70 74 5 -3 7 0 4 9 -6 15 172 197 233 239 18 12 33 28 33
35 0 11 13 16 33 13 5 -1 6 3 3 8 -3 5 5 16 17 24 21 14 24 13 34 -1 8 -14 10
-13 8 8 -2 28 50 74 73 65 7 -2 11 -1 7 4 -3 5 7 19 21 30 20 16 26 30 29 68
1 26 8 67 14 90 9 33 15 41 29 37 13 -5 14 -4 3 4 -15 11 -8 42 9 42 6 0 8 -5
5 -10 -4 -6 5 -5 20 2 18 8 22 14 13 20 -10 6 -10 8 1 8 8 0 11 3 8 6 -4 4
-13 1 -22 -6 -9 -7 -18 -10 -22 -6 -9 9 27 46 46 47 10 0 12 2 3 6 -6 2 -9 9
-6 14 4 6 11 6 19 -1 9 -8 15 -8 20 0 4 6 3 10 -2 9 -25 -4 -23 5 7 36 19 19
39 35 46 35 7 0 15 6 18 13 5 10 7 10 12 0 3 -7 10 -13 16 -13 7 0 6 5 -1 14
-9 11 -1 18 41 36 42 19 77 24 167 28 72 3 111 1 108 -5 -4 -6 4 -8 18 -5 15
2 25 0 25 -7 0 -7 5 -9 11 -5 6 3 33 -4 60 -16 43 -21 48 -26 44 -49 -4 -21
-4 -22 3 -7 6 14 11 16 16 8 4 -7 11 -10 15 -7 13 7 92 -65 85 -77 -4 -6 -2
-8 4 -4 6 3 13 -2 17 -13 3 -10 17 -30 31 -45 16 -15 23 -30 18 -38 -4 -7 -4
-10 1 -6 10 10 67 -31 60 -43 -4 -5 2 -6 11 -2 12 4 15 3 10 -5 -4 -7 -1 -12
9 -12 18 0 62 -26 88 -52 17 -17 17 -19 -9 -43 -28 -26 -51 -34 -38 -13 4 7 3
8 -5 4 -6 -4 -9 -11 -6 -16 3 -5 0 -12 -7 -17 -8 -4 -26 -24 -42 -43 -16 -19
-33 -34 -38 -32 -5 1 -7 -2 -4 -6 3 -5 -3 -17 -14 -27 -11 -10 -17 -22 -13
-28 4 -6 0 -8 -10 -4 -11 4 -17 1 -17 -9 0 -9 5 -12 11 -8 7 4 9 0 6 -12 -3
-11 -9 -37 -13 -59 -4 -22 -12 -43 -18 -47 -8 -5 -7 -8 2 -8 15 0 15 -55 1
-120 -5 -25 -12 -58 -15 -75 -7 -37 -75 -187 -89 -197 -16 -12 -25 -9 -19 7 4
8 1 15 -5 15 -6 0 -10 -3 -10 -7 3 -19 -2 -33 -12 -33 -5 0 -7 6 -3 13 4 6 -3
1 -16 -11 -17 -18 -29 -23 -52 -18 -16 3 -27 2 -23 -3 3 -5 -3 -12 -12 -15
-65 -19 -169 -38 -232 -42 l-75 -4 29 30 c15 16 33 26 39 23 6 -3 8 -3 4 1 -9
11 33 57 45 49 6 -3 7 -1 4 4 -4 6 10 46 30 90 32 66 38 89 40 156 1 43 -2 75
-6 72 -5 -3 -7 -22 -4 -43 7 -51 -20 -153 -59 -221 -18 -31 -59 -83 -93 -117
l-60 -61 60 4 c119 7 302 48 417 92 59 22 122 200 142 398 17 172 35 204 185
331 44 37 38 52 -36 94 -32 18 -83 59 -113 91 -200 212 -229 233 -368 262 -79
16 -125 17 -187 5z"/>
<path d="M1956 2513 c-6 -14 -5 -15 5 -6 7 7 10 15 7 18 -3 3 -9 -2 -12 -12z"/>
<path d="M1470 2506 c0 -2 8 -10 18 -17 15 -13 16 -12 3 4 -13 16 -21 21 -21
13z"/>
<path d="M2015 2480 c-3 -5 -1 -10 4 -10 6 0 11 5 11 10 0 6 -2 10 -4 10 -3 0
-8 -4 -11 -10z"/>
<path d="M2056 2432 c-3 -6 -1 -14 5 -17 14 -9 20 -2 10 14 -6 8 -11 9 -15 3z"/>
<path d="M1840 2352 c0 -7 -6 -12 -14 -12 -25 0 -56 -50 -56 -91 0 -58 33
-105 86 -123 24 -8 44 -12 44 -8 0 4 10 12 22 17 12 6 26 24 31 40 16 49 29
60 44 39 7 -10 13 -13 13 -7 0 20 -25 34 -38 21 -9 -9 -12 -6 -12 13 0 30 -55
99 -79 99 -9 0 -22 5 -29 12 -9 9 -12 9 -12 0z m75 -46 c45 -45 45 -132 0
-162 -53 -35 -135 27 -135 102 0 75 83 112 135 60z"/>
<path d="M2260 2140 c0 -5 5 -10 11 -10 5 0 7 5 4 10 -3 6 -8 10 -11 10 -2 0
-4 -4 -4 -10z"/>
<path d="M2108 2083 c7 -3 16 -2 19 1 4 3 -2 6 -13 5 -11 0 -14 -3 -6 -6z"/>
<path d="M2077 2073 c-4 -3 -7 -11 -7 -17 0 -6 5 -5 12 2 6 6 9 14 7 17 -3 3
-9 2 -12 -2z"/>
<path d="M1189 2067 c0 -1 -2 -10 -4 -20 -3 -15 -1 -16 13 -5 9 7 18 13 20 14
2 1 -4 4 -13 7 -8 4 -15 5 -16 4z"/>
<path d="M1998 1933 c7 -3 16 -2 19 1 4 3 -2 6 -13 5 -11 0 -14 -3 -6 -6z"/>
<path d="M1515 1849 c-4 -6 -5 -12 -2 -15 2 -3 7 2 10 11 7 17 1 20 -8 4z"/>
<path d="M2125 1810 c-3 -5 -1 -10 4 -10 6 0 11 5 11 10 0 6 -2 10 -4 10 -3 0
-8 -4 -11 -10z"/>
<path d="M1835 1799 c-4 -6 -5 -12 -2 -15 2 -3 7 2 10 11 7 17 1 20 -8 4z"/>
<path d="M321 1727 c-13 -33 4 -109 36 -170 35 -64 155 -187 248 -252 151
-107 406 -216 605 -260 83 -18 360 -33 360 -19 0 5 -52 8 -115 8 -63 -1 -132
2 -152 6 -21 5 -64 13 -96 20 -31 6 -55 15 -52 20 3 4 -3 6 -14 3 -28 -7 -205
53 -196 67 3 4 -3 6 -14 3 -32 -8 -327 149 -315 169 3 5 12 4 20 -3 8 -7 14
-7 14 -1 0 15 -26 22 -39 9 -12 -12 -36 5 -36 26 0 7 -9 12 -20 12 -11 0 -19
6 -17 13 1 8 -1 11 -5 9 -5 -3 -13 1 -20 8 -7 8 -9 15 -5 18 4 2 2 3 -4 1 -16
-3 -66 50 -57 61 5 4 3 5 -3 2 -13 -7 -47 30 -39 44 4 5 1 8 -6 7 -13 -3 -54
71 -64 117 -5 23 -4 26 4 15 7 -9 11 -10 11 -3 0 6 -5 15 -10 18 -11 7 -9 49
2 61 8 8 59 -31 53 -40 -3 -3 -2 -4 2 -1 3 3 17 -5 30 -16 21 -21 22 -23 5
-36 -15 -13 -15 -13 5 -4 17 9 25 7 37 -5 9 -9 14 -20 11 -25 -4 -5 0 -7 7 -4
16 7 88 -51 84 -68 -1 -7 -1 -9 1 -4 3 4 9 7 14 7 6 0 7 -6 3 -12 -4 -7 -4
-10 1 -6 4 4 27 -6 52 -23 38 -27 42 -33 31 -47 -11 -15 -11 -15 3 -4 13 10
22 10 43 1 14 -7 23 -16 19 -22 -3 -6 -2 -7 3 -4 6 3 16 1 24 -4 13 -8 13 -10
0 -19 -11 -7 -7 -9 15 -7 39 3 203 -65 179 -74 -16 -5 -15 -6 4 -11 12 -4 20
-2 16 3 -6 11 19 12 30 2 4 -4 13 -8 19 -9 7 0 20 -2 30 -2 11 -1 15 -7 11
-14 -4 -6 -3 -8 3 -5 14 9 176 -27 166 -36 -4 -5 0 -5 9 -2 10 4 23 3 30 -1 7
-5 25 -7 40 -5 17 1 35 -6 49 -20 13 -13 20 -16 17 -7 -5 12 17 14 168 13 98
0 174 3 174 8 0 5 8 3 17 -4 9 -8 14 -9 10 -3 -4 8 14 15 56 23 34 7 73 16 87
21 14 4 50 15 80 24 30 9 64 21 75 26 138 60 138 60 154 48 14 -11 14 -11 4 3
-11 13 -9 18 15 29 15 8 35 14 45 13 9 0 17 5 17 12 0 7 16 22 36 34 42 25 51
26 34 6 -11 -13 -10 -15 6 -9 18 5 18 5 0 -10 -11 -9 -15 -16 -9 -16 7 0 15 5
18 10 4 6 11 7 17 4 5 -4 3 5 -7 19 -16 25 -16 26 21 51 31 21 41 23 53 13 14
-10 14 -10 3 4 -11 15 -9 20 15 38 15 11 35 26 43 33 8 7 19 12 25 10 5 -2 7
-1 3 3 -4 4 -1 14 7 21 16 16 29 19 20 4 -3 -5 -1 -10 5 -10 7 0 9 7 6 16 -7
18 30 53 57 54 62 1 0 -157 -112 -282 -20 -23 -27 -26 -40 -15 -14 10 -14 10
-4 -4 11 -13 10 -19 -6 -33 -12 -11 -21 -14 -26 -7 -3 6 -12 11 -18 11 -7 0
-4 -5 6 -11 17 -10 18 -12 1 -30 -9 -10 -21 -16 -26 -13 -4 3 -7 1 -6 -4 5
-17 -63 -71 -81 -65 -12 4 -13 3 -3 -5 11 -7 7 -14 -16 -31 -32 -23 -52 -27
-52 -11 0 6 -5 10 -11 10 -8 0 -7 -6 2 -16 11 -14 10 -19 -11 -35 -39 -29 -43
-33 -74 -57 -15 -12 -32 -19 -37 -16 -5 3 -9 0 -9 -6 0 -6 -4 -8 -10 -5 -5 3
-10 2 -10 -3 0 -14 -81 -63 -92 -55 -7 3 -8 1 -4 -5 7 -12 -2 -15 -39 -13 -20
1 -20 1 0 -8 17 -7 16 -9 -10 -15 -17 -4 -32 -7 -34 -6 -2 1 -8 -5 -13 -14 -5
-9 -14 -16 -21 -16 -7 0 -29 -9 -50 -20 -20 -11 -37 -17 -37 -13 0 4 -5 2 -12
-5 -20 -20 -30 -14 -17 11 11 20 11 21 -4 8 -10 -7 -17 -19 -17 -26 0 -7 -21
-20 -47 -29 -27 -10 -61 -23 -77 -29 -23 -8 -31 -8 -34 2 -3 9 -7 8 -16 -3
-12 -17 -159 -51 -182 -42 -9 3 -12 1 -9 -4 4 -6 -12 -10 -40 -10 -34 0 -44 3
-40 13 4 6 0 4 -8 -5 -12 -15 -31 -18 -114 -18 -105 0 -166 7 -158 20 2 3 -2
7 -10 7 -8 0 -12 -5 -8 -10 3 -5 -3 -7 -13 -4 -11 3 -39 9 -63 12 -23 4 -55
11 -70 17 -27 11 -36 14 -60 16 -11 2 -11 5 0 20 13 15 12 16 -3 3 -19 -14
-68 -8 -68 10 0 6 -5 7 -10 4 -6 -3 -12 0 -15 7 -3 7 -17 14 -31 14 -14 1 -33
9 -43 18 -10 9 -24 16 -32 16 -12 0 -12 2 0 9 9 6 10 11 2 15 -6 4 -11 2 -11
-4 0 -12 -21 -3 -55 24 l-20 16 20 -7 c11 -3 17 -3 13 2 -4 4 -18 8 -30 9 -13
1 -22 7 -21 14 2 7 -4 9 -14 5 -11 -4 -14 -3 -9 6 4 6 3 10 -2 9 -6 -2 -33 22
-61 52 -77 83 -133 215 -99 236 7 5 9 2 6 -8 -4 -8 0 -15 8 -15 7 0 11 4 8 9
-10 16 11 8 38 -15 15 -12 49 -38 76 -57 32 -22 48 -40 45 -50 -4 -11 -2 -12
4 -3 7 9 23 3 63 -22 30 -19 68 -40 84 -46 27 -11 28 -13 11 -26 -11 -7 -13
-13 -7 -13 19 0 27 4 24 14 -2 5 4 6 13 2 9 -3 21 -6 26 -6 6 0 7 -4 4 -10 -3
-6 1 -7 10 -4 11 5 18 0 22 -16 4 -13 8 -17 13 -10 5 8 19 8 53 -2 25 -6 44
-15 42 -18 -2 -4 13 -7 34 -8 22 -1 51 -6 66 -12 14 -5 40 -10 56 -10 16 0 29
-3 29 -7 0 -5 60 -9 133 -10 74 -1 138 -3 143 -4 5 -1 17 1 27 6 9 4 30 5 47
3 16 -2 27 -1 24 3 -2 4 27 11 66 15 38 3 70 10 70 13 0 4 -42 1 -92 -6 -127
-18 -353 -17 -460 2 -215 37 -401 123 -592 271 -71 57 -84 62 -104 42 -45 -45
40 -205 165 -309 101 -84 273 -170 404 -202 179 -45 422 -48 611 -8 347 74
718 282 994 556 171 170 254 347 172 368 -15 4 -35 -7 -77 -47 -268 -253 -568
-392 -919 -426 -283 -28 -673 66 -932 224 -73 45 -168 118 -283 218 -42 37
-84 68 -92 68 -9 0 -19 -10 -24 -23z"/>
<path d="M1685 1741 c-3 -5 -2 -12 3 -15 5 -3 9 1 9 9 0 17 -3 19 -12 6z"/>
<path d="M845 1730 c3 -5 8 -10 11 -10 2 0 4 5 4 10 0 6 -5 10 -11 10 -5 0 -7
-4 -4 -10z"/>
<path d="M1408 1733 c6 -2 18 -2 25 0 6 3 1 5 -13 5 -14 0 -19 -2 -12 -5z"/>
<path d="M875 1721 c-3 -5 -1 -12 5 -16 5 -3 10 1 10 9 0 18 -6 21 -15 7z"/>
<path d="M1018 1723 c7 -3 16 -2 19 1 4 3 -2 6 -13 5 -11 0 -14 -3 -6 -6z"/>
<path d="M1780 1720 c0 -5 5 -10 11 -10 5 0 7 5 4 10 -3 6 -8 10 -11 10 -2 0
-4 -4 -4 -10z"/>
<path d="M990 1669 c0 -5 5 -7 10 -4 6 3 10 8 10 11 0 2 -4 4 -10 4 -5 0 -10
-5 -10 -11z"/>
<path d="M1378 1673 c7 -3 16 -2 19 1 4 3 -2 6 -13 5 -11 0 -14 -3 -6 -6z"/>
<path d="M1065 1660 c3 -5 8 -10 11 -10 2 0 4 5 4 10 0 6 -5 10 -11 10 -5 0
-7 -4 -4 -10z"/>
<path d="M1111 1614 c0 -11 3 -14 6 -6 3 7 2 16 -1 19 -3 4 -6 -2 -5 -13z"/>
<path d="M820 1566 c0 -2 7 -7 16 -10 8 -3 12 -2 9 4 -6 10 -25 14 -25 6z"/>
<path d="M1035 1550 c4 -6 11 -8 16 -5 14 9 11 15 -7 15 -8 0 -12 -5 -9 -10z"/>
<path d="M2488 1553 c7 -3 16 -2 19 1 4 3 -2 6 -13 5 -11 0 -14 -3 -6 -6z"/>
<path d="M970 1540 c0 -5 4 -10 9 -10 6 0 13 5 16 10 3 6 -1 10 -9 10 -9 0
-16 -4 -16 -10z"/>
<path d="M1198 1543 c6 -2 18 -2 25 0 6 3 1 5 -13 5 -14 0 -19 -2 -12 -5z"/>
<path d="M1443 1515 c0 -8 4 -12 9 -9 5 3 6 10 3 15 -9 13 -12 11 -12 -6z"/>
<path d="M455 1501 c-3 -5 -2 -12 3 -15 5 -3 9 1 9 9 0 17 -3 19 -12 6z"/>
<path d="M595 1500 c3 -5 11 -10 16 -10 6 0 7 5 4 10 -3 6 -11 10 -16 10 -6 0
-7 -4 -4 -10z"/>
<path d="M1035 1501 c-3 -5 0 -13 6 -17 7 -4 9 -3 5 4 -3 5 0 13 6 15 9 4 10
6 1 6 -6 1 -14 -3 -18 -8z"/>
<path d="M1080 1489 c0 -5 5 -7 10 -4 6 3 10 8 10 11 0 2 -4 4 -10 4 -5 0 -10
-5 -10 -11z"/>
<path d="M1720 1456 c0 -2 7 -9 15 -16 9 -7 15 -8 15 -2 0 5 -7 12 -15 16 -8
3 -15 4 -15 2z"/>
<path d="M1850 1430 c-11 -7 -11 -10 -2 -10 8 0 10 -5 6 -12 -4 -7 -3 -9 1 -5
7 6 17 37 12 37 -1 0 -9 -5 -17 -10z"/>
<path d="M2292 1394 c-7 -8 -8 -14 -3 -14 10 0 25 19 20 25 -2 1 -10 -3 -17
-11z"/>
<path d="M1640 1386 c0 -2 7 -7 16 -10 8 -3 12 -2 9 4 -6 10 -25 14 -25 6z"/>
<path d="M605 1360 c3 -5 8 -10 11 -10 2 0 4 5 4 10 0 6 -5 10 -11 10 -5 0 -7
-4 -4 -10z"/>
<path d="M2425 1340 c-3 -5 -2 -10 4 -10 5 0 13 5 16 10 3 6 2 10 -4 10 -5 0
-13 -4 -16 -10z"/>
<path d="M2057 1301 c-10 -12 -9 -13 3 -6 8 5 21 10 28 11 24 4 25 13 3 11
-12 -1 -28 -8 -34 -16z"/>
<path d="M2125 1300 c3 -5 11 -10 16 -10 6 0 7 5 4 10 -3 6 -11 10 -16 10 -6
0 -7 -4 -4 -10z"/>
<path d="M2190 1280 c0 -5 5 -10 10 -10 6 0 10 5 10 10 0 6 -4 10 -10 10 -5 0
-10 -4 -10 -10z"/>
<path d="M2632 1248 c-17 -13 -76 -63 -132 -113 -173 -154 -359 -273 -512
-330 -27 -10 -48 -22 -48 -27 0 -5 5 -6 11 -2 6 3 16 0 21 -7 8 -11 9 -10 4 3
-3 12 2 19 17 24 34 10 189 85 219 106 15 10 34 15 45 12 13 -4 15 -3 4 4 -9
7 -10 12 -2 16 17 11 31 -2 25 -22 -5 -14 -4 -14 4 -2 7 10 8 18 1 26 -7 9 -4
16 10 24 17 9 21 8 21 -5 0 -9 -3 -14 -7 -12 -5 3 -8 -5 -8 -18 0 -13 3 -21 7
-19 8 5 23 65 19 78 -1 5 5 6 13 3 9 -4 15 -3 15 1 -3 19 2 23 16 12 13 -11
14 -10 10 2 -4 10 5 24 25 39 45 34 150 125 186 161 17 17 37 28 43 24 6 -4 9
-2 5 7 -3 10 2 14 17 13 21 -1 41 -26 21 -26 -6 0 -8 -10 -4 -22 4 -17 2 -20
-13 -14 -15 5 -16 4 -6 -8 10 -11 7 -25 -14 -66 -14 -28 -30 -48 -34 -45 -5 2
-12 -2 -15 -11 -3 -8 -2 -12 4 -9 15 9 12 -11 -3 -24 -8 -6 -18 -7 -22 -3 -5
4 -5 1 -1 -6 8 -13 -37 -75 -48 -66 -3 2 -4 1 -2 -2 3 -3 -12 -24 -32 -46 -25
-27 -42 -38 -56 -34 -14 4 -16 2 -8 -6 15 -15 -54 -68 -81 -62 -14 2 -16 0 -8
-10 8 -10 4 -16 -17 -27 -15 -7 -39 -22 -54 -33 -15 -10 -31 -15 -39 -11 -8 5
-10 4 -5 -3 4 -7 3 -12 -3 -12 -5 0 -11 3 -14 8 -2 4 -3 2 -1 -4 4 -19 -156
-90 -181 -80 -9 3 -14 2 -10 -3 5 -9 -42 -25 -75 -25 -8 0 -17 -3 -20 -7 -21
-27 -358 -48 -495 -30 -111 14 -196 32 -191 40 2 3 -12 7 -33 7 -20 1 -61 13
-91 27 l-55 26 162 -1 c114 -1 160 -5 156 -12 -4 -6 1 -5 10 3 9 7 28 11 42 9
13 -3 22 -2 19 3 -2 4 4 8 13 7 10 0 44 2 76 5 50 5 58 4 53 -9 -3 -9 -2 -12
5 -9 6 4 8 14 5 22 -5 12 0 14 23 11 17 -2 28 -1 25 4 -3 4 8 8 24 8 16 0 42
4 58 9 16 5 65 19 109 31 44 12 85 27 90 33 7 7 5 8 -6 4 -116 -40 -302 -80
-459 -98 -105 -12 -435 -8 -475 5 -47 17 57 -36 127 -63 132 -52 245 -73 428
-78 126 -4 192 -1 275 12 306 47 590 205 764 425 79 100 137 244 110 276 -15
19 -21 18 -57 -8z"/>
<path d="M1206 1238 c3 -5 10 -6 15 -3 13 9 11 12 -6 12 -8 0 -12 -4 -9 -9z"/>
<path d="M1875 1240 c-3 -5 -1 -10 4 -10 6 0 11 5 11 10 0 6 -2 10 -4 10 -3 0
-8 -4 -11 -10z"/>
<path d="M1220 1215 c-8 -9 -8 -15 -2 -15 12 0 26 19 19 26 -2 2 -10 -2 -17
-11z"/>
<path d="M2100 1219 c0 -5 5 -7 10 -4 6 3 10 8 10 11 0 2 -4 4 -10 4 -5 0 -10
-5 -10 -11z"/>
<path d="M1888 1213 c7 -3 16 -2 19 1 4 3 -2 6 -13 5 -11 0 -14 -3 -6 -6z"/>
<path d="M1110 1200 c0 -5 5 -10 11 -10 5 0 7 5 4 10 -3 6 -8 10 -11 10 -2 0
-4 -4 -4 -10z"/>
<path d="M350 1188 c-13 -8 -12 -9 2 -5 9 3 19 1 21 -6 2 -7 7 -9 11 -6 13 12
-19 28 -34 17z"/>
<path d="M1588 1193 c7 -3 16 -2 19 1 4 3 -2 6 -13 5 -11 0 -14 -3 -6 -6z"/>
<path d="M2220 1170 c0 -5 5 -10 11 -10 5 0 7 5 4 10 -3 6 -8 10 -11 10 -2 0
-4 -4 -4 -10z"/>
<path d="M1670 1150 c-9 -6 -10 -10 -3 -10 6 0 15 5 18 10 8 12 4 12 -15 0z"/>
<path d="M1870 1150 c0 -5 5 -10 10 -10 6 0 10 5 10 10 0 6 -4 10 -10 10 -5 0
-10 -4 -10 -10z"/>
<path d="M1210 1126 c0 -2 7 -7 16 -10 8 -3 12 -2 9 4 -6 10 -25 14 -25 6z"/>
<path d="M2570 1085 c0 -8 2 -15 4 -15 2 0 6 7 10 15 3 8 1 15 -4 15 -6 0 -10
-7 -10 -15z"/>
<path d="M1266 1075 c-3 -8 -1 -15 4 -15 6 0 10 7 10 15 0 8 -2 15 -4 15 -2 0
-6 -7 -10 -15z"/>
<path d="M1835 1050 c-3 -5 -1 -10 4 -10 6 0 11 5 11 10 0 6 -2 10 -4 10 -3 0
-8 -4 -11 -10z"/>
<path d="M1947 1019 c7 -7 15 -10 18 -7 3 3 -2 9 -12 12 -14 6 -15 5 -6 -5z"/>
<path d="M650 994 c0 -8 5 -12 10 -9 6 4 8 11 5 16 -9 14 -15 11 -15 -7z"/>
<path d="M1925 999 c-4 -6 -5 -12 -2 -15 2 -3 7 2 10 11 7 17 1 20 -8 4z"/>
<path d="M797 988 c2 -5 10 -8 18 -8 8 0 16 3 18 8 3 4 -5 7 -18 7 -13 0 -21
-3 -18 -7z"/>
<path d="M2430 961 c10 -7 11 -11 3 -11 -7 0 -13 -4 -13 -10 0 -5 7 -10 16
-10 20 0 15 32 -6 37 -13 4 -13 3 0 -6z"/>
<path d="M1786 941 c10 -10 21 -14 23 -8 4 10 -17 27 -33 27 -5 0 -1 -8 10
-19z"/>
<path d="M1270 929 c0 -5 5 -7 10 -4 6 3 10 8 10 11 0 2 -4 4 -10 4 -5 0 -10
-5 -10 -11z"/>
<path d="M1645 910 c3 -5 8 -10 11 -10 2 0 4 5 4 10 0 6 -5 10 -11 10 -5 0 -7
-4 -4 -10z"/>
<path d="M1295 891 c-3 -5 -1 -12 5 -16 5 -3 10 1 10 9 0 18 -6 21 -15 7z"/>
<path d="M745 870 c10 -11 20 -20 23 -20 3 0 -3 9 -13 20 -10 11 -20 20 -23
20 -3 0 3 -9 13 -20z"/>
<path d="M1580 873 c0 -1 8 -7 18 -12 13 -7 19 -6 19 2 0 7 -9 13 -19 13 -10
0 -18 -1 -18 -3z"/>
<path d="M1115 840 c-3 -6 1 -7 9 -4 18 7 21 14 7 14 -6 0 -13 -4 -16 -10z"/>
<path d="M2133 836 c-7 -8 -18 -16 -25 -19 -7 -2 -11 -7 -8 -10 3 -3 19 5 35
18 17 13 26 24 20 24 -5 0 -15 -6 -22 -13z"/>
<path d="M2390 840 c-9 -6 -10 -10 -3 -10 6 0 15 5 18 10 8 12 4 12 -15 0z"/>
<path d="M467 793 c-27 -26 13 -101 109 -202 246 -262 587 -406 954 -403 254
2 471 68 674 205 76 51 174 149 182 182 15 61 -15 56 -221 -38 -192 -88 -378
-128 -594 -128 -353 1 -653 103 -975 335 -72 51 -112 67 -129 49z m105 -46
c27 -18 48 -35 48 -39 0 -5 6 -8 13 -8 18 0 49 -35 40 -44 -4 -4 0 -4 10 0 23
8 47 -12 42 -36 -3 -14 1 -17 13 -13 14 5 15 3 5 -8 -7 -7 -13 -17 -13 -23 0
-5 7 -1 15 10 12 17 12 20 -2 32 -9 6 -12 12 -5 12 11 0 132 -67 142 -79 3 -3
12 -7 20 -9 8 -2 17 -8 18 -13 2 -5 7 -7 12 -4 9 6 60 -15 60 -24 0 -3 11 -7
24 -7 13 -1 38 -9 57 -17 19 -9 49 -18 67 -22 18 -4 30 -10 28 -14 -3 -4 11
-7 30 -6 28 2 34 -1 29 -14 -5 -12 -3 -13 6 -4 14 14 41 5 32 -11 -3 -6 -1 -6
8 2 14 13 43 17 36 5 -11 -19 332 -23 461 -6 59 8 75 7 79 -4 3 -7 10 -13 15
-13 6 0 5 6 -2 15 -10 12 -7 15 17 20 15 4 64 17 107 30 44 13 84 21 89 18 6
-3 7 -2 4 3 -3 6 29 23 71 39 42 16 92 38 110 48 18 11 39 17 47 13 8 -3 14 0
12 6 -1 6 11 14 26 19 37 10 46 -11 18 -48 -25 -34 -101 -109 -101 -100 0 6
-11 -3 -62 -49 -9 -9 -22 -13 -28 -9 -6 3 -9 3 -8 -2 2 -4 -1 -9 -6 -10 -5 -1
-12 -5 -15 -10 -11 -15 -63 -45 -69 -39 -3 3 -1 6 5 6 6 0 14 7 17 15 5 13 1
12 -18 -2 -13 -10 -22 -21 -20 -25 3 -4 -5 -12 -16 -18 -11 -6 -20 -8 -20 -4
0 4 -9 -1 -20 -11 -11 -10 -28 -15 -40 -12 -11 3 -23 0 -28 -7 -10 -17 -83
-36 -112 -30 -18 4 -21 3 -11 -4 18 -13 0 -18 -114 -30 -121 -14 -137 -13
-128 1 4 7 -1 6 -10 -2 -30 -24 -347 5 -331 30 3 5 -2 6 -11 3 -20 -8 -106 16
-100 27 3 4 0 11 -6 15 -8 4 -9 3 -5 -4 8 -13 -4 -15 -28 -6 -9 3 -14 10 -11
14 3 5 0 12 -6 16 -8 4 -9 3 -5 -4 4 -7 2 -12 -5 -12 -22 0 -179 79 -179 90 0
6 -4 9 -9 5 -14 -8 -99 52 -117 83 -8 15 -13 19 -10 9 5 -15 3 -16 -15 -7 -11
6 -16 16 -13 22 4 6 3 8 -3 5 -5 -3 -16 2 -25 11 -9 9 -30 28 -47 41 -17 13
-28 28 -24 34 3 6 1 7 -5 3 -21 -13 -132 147 -132 190 0 23 43 11 102 -29z"/>
<path d="M523 756 c0 -6 9 -13 19 -13 10 -1 18 0 18 2 0 2 -8 9 -18 14 -14 7
-19 6 -19 -3z"/>
<path d="M506 727 c3 -10 9 -15 12 -12 3 3 0 11 -7 18 -10 9 -11 8 -5 -6z"/>
<path d="M620 633 c5 -2 8 -9 4 -14 -3 -5 0 -9 6 -9 15 0 7 23 -8 26 -7 1 -8
0 -2 -3z"/>
<path d="M2337 584 c-3 -3 -3 -12 0 -20 3 -8 -1 -22 -8 -32 -13 -15 -12 -16 3
-3 10 7 17 24 16 37 -3 27 -2 26 -11 18z"/>
<path d="M875 519 c-4 -6 -5 -12 -2 -15 2 -3 7 2 10 11 7 17 1 20 -8 4z"/>
<path d="M770 470 c-18 -12 -2 -12 25 0 13 6 15 9 5 9 -8 0 -22 -4 -30 -9z"/>
<path d="M2000 410 c6 -11 13 -20 16 -20 2 0 0 9 -6 20 -6 11 -13 20 -16 20
-2 0 0 -9 6 -20z"/>
<path d="M1945 410 c3 -5 8 -10 11 -10 2 0 4 5 4 10 0 6 -5 10 -11 10 -5 0 -7
-4 -4 -10z"/>
<path d="M1101 384 c0 -11 3 -14 6 -6 3 7 2 16 -1 19 -3 4 -6 -2 -5 -13z"/>
<path d="M2068 393 c6 -3 10 -9 6 -14 -8 -14 2 -11 14 4 8 10 6 13 -11 14 -12
0 -16 -1 -9 -4z"/>
<path d="M1813 360 c0 -23 3 -28 9 -16 5 9 5 23 0 32 -6 12 -9 7 -9 -16z"/>
<path d="M944 345 c11 -8 22 -12 25 -9 6 6 -19 24 -34 24 -5 -1 -1 -7 9 -15z"/>
<path d="M1567 319 c7 -7 15 -10 18 -7 3 3 -2 9 -12 12 -14 6 -15 5 -6 -5z"/>
<path d="M1846 305 c-3 -8 -1 -15 4 -15 6 0 10 7 10 15 0 8 -2 15 -4 15 -2 0
-6 -7 -10 -15z"/>
<path d="M1868 263 c7 -3 16 -2 19 1 4 3 -2 6 -13 5 -11 0 -14 -3 -6 -6z"/>
<path d="M2088 693 c7 -3 16 -2 19 1 4 3 -2 6 -13 5 -11 0 -14 -3 -6 -6z"/>
<path d="M1695 640 c-3 -6 1 -7 9 -4 18 7 21 14 7 14 -6 0 -13 -4 -16 -10z"/>
<path d="M1240 630 c0 -5 5 -10 11 -10 5 0 7 5 4 10 -3 6 -8 10 -11 10 -2 0
-4 -4 -4 -10z"/>
<path d="M1418 633 c7 -3 16 -2 19 1 4 3 -2 6 -13 5 -11 0 -14 -3 -6 -6z"/>
<path d="M1196 618 c3 -4 11 -5 19 -1 21 7 19 12 -4 10 -11 0 -18 -5 -15 -9z"/>
<path d="M1630 610 c0 -5 5 -10 11 -10 5 0 7 5 4 10 -3 6 -8 10 -11 10 -2 0
-4 -4 -4 -10z"/>
</g>
</svg>
